<?xml version="1.0" encoding="UTF-8"?>
<svg version="1.1" xmlns="http://www.w3.org/2000/svg" width="67" height="67">
<path d="M0 0 C0.95769287 -0.00287018 1.91538574 -0.00574036 2.90209961 -0.00869751 C4.92269483 -0.0107349 6.94330992 -0.00522783 8.96386719 0.00732422 C12.05188209 0.02338229 15.13858818 0.00746427 18.2265625 -0.01171875 C20.19271121 -0.00973626 22.15885912 -0.00589247 24.125 0 C25.50643188 -0.00910904 25.50643188 -0.00910904 26.91577148 -0.0184021 C33.05939129 0.04880895 36.59947732 0.93541482 41.0625 5.3984375 C42.51567052 9.24690583 42.24256734 13.3949217 42.265625 17.453125 C42.27132507 18.23229279 42.27702515 19.01146057 42.28289795 19.8142395 C42.29232646 21.45996756 42.29887338 23.10571431 42.30273438 24.75146484 C42.31243954 27.25782463 42.34348207 29.76336372 42.375 32.26953125 C42.38153092 33.87239099 42.38678104 35.47525656 42.390625 37.078125 C42.4029718 37.82206512 42.4153186 38.56600525 42.42803955 39.33248901 C42.40779902 44.10334469 41.60574643 47.35679124 39.0625 51.3984375 C35.09663623 54.34741313 31.94859965 54.43692186 27.1875 54.4609375 C23.1660337 54.66101045 21.58101102 54.92232047 18.578125 57.6796875 C17.18546178 59.48913315 15.85003933 61.34460724 14.5859375 63.24609375 C14.08320312 63.95636719 13.58046875 64.66664062 13.0625 65.3984375 C12.4025 65.3984375 11.7425 65.3984375 11.0625 65.3984375 C9.91074532 63.77121486 8.79119327 62.12113434 7.6875 60.4609375 C4.61733382 56.46650409 4.61733382 56.46650409 0.078125 54.6171875 C-1.99948607 54.51382377 -4.07999042 54.45708823 -6.16015625 54.44921875 C-9.78073377 54.38301972 -12.00610143 53.50303135 -14.9375 51.3984375 C-18.31486357 47.1020014 -18.37637556 43.03212897 -18.3359375 37.7734375 C-18.33880768 36.9489209 -18.34167786 36.1244043 -18.34463501 35.27490234 C-18.34667072 33.53677684 -18.3411754 31.79862817 -18.32861328 30.06054688 C-18.312552 27.40702871 -18.32847809 24.75503355 -18.34765625 22.1015625 C-18.34567373 20.40885082 -18.34182987 18.71614008 -18.3359375 17.0234375 C-18.34201019 16.23372559 -18.34808289 15.44401367 -18.3543396 14.63037109 C-18.2960614 10.04358477 -17.90555759 6.96561953 -14.9375 3.3984375 C-10.45946979 -0.47539723 -5.62266806 -0.03707537 0 0 Z " fill="#9966FF" transform="translate(21.9375,0.6015625)"/>
<path d="M0 0 C2.5625 2.125 2.5625 2.125 4 5 C3.93669753 8.16512361 3.54374114 10.12397261 1.875 12.8125 C-1.13823859 14.72088444 -3.45404442 15 -7 15 C-10 13 -10 13 -12 10 C-12 6.48044581 -11.63108355 4.15079941 -9.9375 1.0625 C-6.7235125 -0.70000928 -3.50343338 -0.74571072 0 0 Z " fill="#FBF9FF" transform="translate(38,33)"/>
<path d="M0 0 C1.32 0 2.64 0 4 0 C4.83719383 2.29032311 5.6698929 4.58210957 6.5 6.875 C6.73847656 7.52597656 6.97695313 8.17695313 7.22265625 8.84765625 C9 13.7734375 9 13.7734375 9 16 C7.68 15.67 6.36 15.34 5 15 C5 14.34 5 13.68 5 13 C3.02 13 1.04 13 -1 13 C-1.33 13.99 -1.66 14.98 -2 16 C-2.99 16 -3.98 16 -5 16 C-4.54548816 14.26982492 -4.08621143 12.54090123 -3.625 10.8125 C-3.36976562 9.84957031 -3.11453125 8.88664062 -2.8515625 7.89453125 C-2.05233704 5.17789793 -1.0968638 2.60862825 0 0 Z " fill="#F0E9FF" transform="translate(32,12)"/>
</svg>
